HIERARCHY
ROOT Hips
{
	OFFSET -3.958830 18.904000 13.208200
	CHANNELS 6 Xposition Yposition Zposition Zrotation Yrotation Xrotation 
	JOINT LHipJoint
	{
		OFFSET 0.000000 0.000000 0.000000
		CHANNELS 3 Zrotation Yrotation Xrotation
		JOINT LeftUpLeg
		{
			OFFSET 1.800000 -1.400000 0.085000
			CHANNELS 3 Zrotation Yrotation Xrotation
			JOINT LeftLeg
			{
				OFFSET 2.215000 -6.000000 0.000000
				CHANNELS 3 Zrotation Yrotation Xrotation
				JOINT LeftFoot
				{
					OFFSET 2.500000 -6.900000 0.000000
					CHANNELS 3 Zrotation Yrotation Xrotation
					JOINT LeftToeBase
					{
						OFFSET 0.200000 -0.500000 1.950000
						CHANNELS 3 Zrotation Yrotation Xrotation
						End Site
						{
							OFFSET 0.000000 0.000000 0.000000
						}
					}
				}
			}
		}
	}
	JOINT RHipJoint
	{
		OFFSET 0.000000 0.000000 0.000000
		CHANNELS 3 Zrotation Yrotation Xrotation
		JOINT RightUpLeg
		{
			OFFSET -1.800000 -1.400000 0.085000
			CHANNELS 3 Zrotation Yrotation Xrotation
			JOINT RightLeg
			{
				OFFSET -2.215000 -6.000000 0.000000
				CHANNELS 3 Zrotation Yrotation Xrotation
				JOINT RightFoot
				{
					OFFSET -2.500000 -6.900000 0.000000
					CHANNELS 3 Zrotation Yrotation Xrotation
					JOINT RightToeBase
					{
						OFFSET -0.200000 -0.500000 1.950000
						CHANNELS 3 Zrotation Yrotation Xrotation
						End Site
						{
							OFFSET 0.000000 0.000000 0.000000
						}
					}
				}
			}
		}
	}
	JOINT LowerBack
	{
		OFFSET 0.000000 0.000000 0.000000
		CHANNELS 3 Zrotation Yrotation Xrotation
		JOINT Spine
		{
			OFFSET -0.087000 1.940000 -0.288900
			CHANNELS 3 Zrotation Yrotation Xrotation
			JOINT Spine1
			{
				OFFSET 0.000000 1.950000 0.060000
				CHANNELS 3 Zrotation Yrotation Xrotation
				JOINT Neck
				{
					OFFSET 0.000000 0.000000 0.000000
					CHANNELS 3 Zrotation Yrotation Xrotation
					JOINT Neck1
					{
						OFFSET 0.000000 1.600000 0.340000
						CHANNELS 3 Zrotation Yrotation Xrotation
						JOINT Head
						{
							OFFSET 0.000000 1.667000 -0.240000
							CHANNELS 3 Zrotation Yrotation Xrotation
							End Site
							{
								OFFSET 0.000000 0.000000 0.000000
							}
						}
					}
				}
				JOINT LeftShoulder
				{
					OFFSET 0.000000 0.000000 0.000000
					CHANNELS 3 Zrotation Yrotation Xrotation
					JOINT LeftArm
					{
						OFFSET 2.700000 1.550000 -0.730000
						CHANNELS 3 Zrotation Yrotation Xrotation
						JOINT LeftForeArm
						{
							OFFSET 5.450000 0.000000 0.000000
							CHANNELS 3 Zrotation Yrotation Xrotation
							JOINT LeftHand
							{
								OFFSET 3.450000 0.000000 0.000000
								CHANNELS 3 Zrotation Yrotation Xrotation
								JOINT LeftHandIndex1
								{
									OFFSET 0.750000 0.000000 0.000000
									CHANNELS 3 Zrotation Yrotation Xrotation
									End Site
									{
										OFFSET 0.000000 0.000000 0.000000
									}
								}
							}
						}
					}
				}
				JOINT RightShoulder
				{
					OFFSET 0.000000 0.000000 0.000000
					CHANNELS 3 Zrotation Yrotation Xrotation
					JOINT RightArm
					{
						OFFSET -2.700000 1.550000 -0.730000
						CHANNELS 3 Zrotation Yrotation Xrotation
						JOINT RightForeArm
						{
							OFFSET -5.450000 0.000000 0.000000
							CHANNELS 3 Zrotation Yrotation Xrotation
							JOINT RightHand
							{
								OFFSET -3.450000 0.000000 0.000000
								CHANNELS 3 Zrotation Yrotation Xrotation
								JOINT RightHandIndex1
								{
									OFFSET -0.750000 0.000000 0.000000
									CHANNELS 3 Zrotation Yrotation Xrotation
									End Site
									{
										OFFSET 0.000000 0.000000 0.000000
									}
								}
							}
						}
					}
				}
			}
		}
	}
}
MOTION
Frames: 10
Frame Time: 0.016667
-0.844940 13.605390 -2.061140 -49.550647 6.810959 -6.516853 -15.689401 11.664423 6.540162 4.521136 -18.865788 -38.034528 -22.566933 27.557265 67.716998 1.966690 15.212300 -0.624883 0.472540 0.322300 0.613490 17.967180 -10.004294 1.564753 -5.787668 -3.322062 12.859471 -5.865501 -7.305900 38.792552 -1.324698 -6.871464 1.906568 0.126480 -0.203450 0.079150 -2.565573 -3.018015 -8.874662 1.687919 4.341650 50.679968 -2.097208 9.788100 29.214095 2.638976 2.056196 -25.361362 -1.521640 3.897642 44.084008 8.380950 5.543350 -22.786740 -9.087358 -38.152560 11.805467 -10.449265 -10.380442 -4.124087 17.724262 -0.431886 -2.275482 -3.792856 2.792571 0.887510 -0.301150 0.395780 -0.079580 2.981984 39.382868 20.027362 25.654899 -8.190886 -3.733831 2.240730 8.769114 -0.030677 2.211825 -0.805903 -0.197950 0.199870 -0.051440 -0.301150 
-0.878230 13.602060 -1.976490 -50.241839 4.048130 -7.164435 -15.627979 11.816285 6.327571 4.406368 -16.808052 -36.635383 -21.211957 26.863069 66.687330 1.891290 14.861850 -0.545195 0.466530 0.283760 0.600460 17.989429 -10.165499 1.583833 -4.976945 -2.114411 11.254505 -7.358035 -7.270540 47.209457 -1.503519 -7.753919 1.613131 0.099220 -0.221710 0.067720 -2.652389 -2.840265 -8.801143 1.373615 4.922975 49.802685 -2.811805 10.804981 27.006174 2.801239 1.149365 -24.962471 -3.375301 4.472846 44.121891 10.171830 4.997610 -20.876360 -9.974498 -36.532860 11.650783 -12.163173 -9.510702 -3.601760 17.305610 -1.297759 -2.182920 -3.677866 2.873794 0.892240 -0.330690 0.376330 -0.071460 3.999970 38.836392 20.324030 25.954953 -10.470997 -4.499320 5.845795 7.773104 -0.358626 2.251889 -0.778465 -0.197830 0.146990 -0.064950 -0.304180 
-0.836720 13.579380 -1.853450 -53.124102 1.693962 -10.003444 -15.453592 12.109407 5.836059 4.190962 -13.728535 -32.852089 -17.647777 24.549882 65.638425 1.627802 14.196834 -0.387447 0.377040 0.102260 0.612680 18.084325 -10.380343 1.856848 -2.590545 -0.242244 8.584541 -8.370658 -7.201088 55.937232 -1.722319 -8.683287 1.322926 0.004800 -0.228300 0.037270 -2.999988 -2.495562 -8.741320 4.809986 2.044112 51.896211 -6.783512 10.502904 23.090176 4.524594 0.522853 -25.709424 -5.546568 5.831547 46.333973 10.383710 4.921180 -19.406800 -12.047234 -35.078516 11.774768 -14.401360 -5.773981 -4.008716 17.684433 -3.246073 -2.343551 -3.582048 2.828463 0.991940 -0.364310 0.358820 -0.123710 3.223386 38.231098 19.991707 24.830362 -12.352072 -5.963540 7.384071 10.178250 -0.316967 2.177318 -0.680359 -0.278820 0.158530 -0.012280 -0.367550 
-0.831790 13.615040 -1.748350 -54.393634 0.405484 -12.245203 -15.347087 12.319566 5.297208 2.945659 -11.128456 -30.556398 -13.829662 21.370909 62.664699 1.287710 13.051038 -0.093141 0.324050 0.053240 0.574630 18.156880 -10.496699 2.130938 -0.940129 2.755728 3.265880 -7.834452 -8.105207 65.770927 -1.972833 -9.881825 0.990205 -0.019650 -0.184100 0.046490 -3.212790 -2.142904 -8.641941 6.501883 1.479903 51.653180 -8.712569 10.340085 22.098807 4.897628 1.343893 -24.844029 -3.503830 5.665695 47.463540 9.386150 5.498860 -18.619130 -11.956553 -33.563139 11.274432 -14.722497 -5.473000 -3.430005 16.421295 -3.385273 -2.102023 -3.636979 2.720618 0.978700 -0.313840 0.335980 -0.141640 1.912322 36.056020 19.448359 24.336939 -11.202847 -5.361724 6.186930 8.986782 -0.186973 2.214625 -0.618707 -0.293450 0.180910 0.031490 -0.368090 
-0.781930 13.657270 -1.691960 -52.194779 0.979954 -14.193650 -15.345916 12.508322 4.863894 -2.209068 -9.880917 -26.584443 -12.179957 19.159700 57.615550 1.094438 11.710087 0.328931 0.313220 0.102180 0.568860 18.139546 -10.452175 2.299915 -4.437487 6.530157 -4.086061 -4.674562 -11.347549 74.844147 -2.237279 -11.226884 0.607230 -0.016510 -0.178300 0.054850 -3.191209 -2.137381 -8.579121 3.849108 2.963587 51.179635 -9.288310 9.432069 23.074472 4.498405 3.987542 -24.794846 2.829349 4.996280 48.304280 7.610370 8.089900 -18.025980 -10.836754 -33.788345 11.785460 -13.576914 -3.856053 -2.989299 14.366925 -3.268434 -1.656827 -3.693546 2.642749 0.916730 -0.264260 0.350890 -0.138840 0.621923 34.264494 18.696264 25.759210 -7.880625 -4.412917 -6.909418 6.669757 0.257404 2.420334 -0.851606 -0.257990 0.173370 0.010150 -0.348780 
-0.703840 13.765710 -1.648120 -48.586885 2.287627 -18.471064 -15.548502 13.029827 4.362156 -7.222696 -7.831615 -20.093601 -8.103526 17.079787 55.637131 1.007416 10.788383 0.660858 0.319620 0.096620 0.672940 17.940123 -9.869103 2.638824 -10.400328 9.692968 -8.315961 2.398889 -17.855656 79.540073 -2.554179 -12.484939 0.247658 -0.052790 -0.266790 0.038140 -2.652710 -3.424390 -8.608106 -2.872842 7.389123 55.124857 -6.557168 8.811358 22.475685 4.434279 6.084775 -26.364784 6.817569 3.636057 51.078137 4.145190 9.942750 -19.536570 -10.937243 -34.810146 12.418943 -12.722413 -1.838108 -2.736948 12.426613 -2.643818 -1.190826 -3.642399 2.495857 0.975130 -0.310880 0.431440 -0.154860 0.438386 34.845027 18.559528 23.028331 -10.079164 -7.035489 -14.235429 8.415490 -0.425047 2.507033 -0.998976 -0.258060 0.175350 -0.048000 -0.389110 
-0.686480 13.802420 -1.558690 -47.722617 5.523575 -20.297541 -15.706828 12.969098 4.161978 -10.665167 -7.767902 -19.785579 0.550008 14.058376 62.981712 1.078081 11.277953 0.526206 0.317010 0.054250 0.703260 17.893774 -9.093602 3.187305 -12.303381 11.389759 -14.686883 7.355113 -23.855925 83.488441 -2.867219 -13.867359 -0.128380 -0.044920 -0.253030 0.050390 -2.372044 -4.233625 -8.821082 -5.768896 7.970868 54.897571 -4.389303 6.302594 21.383229 4.340108 6.899361 -25.237150 9.554267 3.724237 52.356587 1.913440 11.658230 -17.014420 -12.760672 -33.242386 12.190447 -13.373072 -1.048391 -2.417847 11.607661 -2.642953 -1.042235 -3.667284 2.494587 0.965140 -0.267140 0.393170 -0.164420 2.095020 32.145894 17.834517 14.108565 -6.919944 -6.035665 -16.229438 8.217348 -0.799875 2.543651 -1.031468 -0.289650 0.154420 -0.040680 -0.423940 
-0.618200 13.634070 -1.446010 -52.522465 7.180814 -22.911392 -15.549208 12.391265 3.871292 -11.182411 -8.092391 -20.570851 9.077850 9.735449 71.463150 1.143329 12.118243 0.277916 0.295820 -0.003370 0.665220 18.120228 -8.421302 4.245732 -16.246825 13.115158 -19.700424 21.707788 -36.286617 79.858270 -3.294721 -15.386871 -0.476864 -0.026700 -0.187220 0.036590 -2.903540 -3.824477 -9.205110 2.580102 -0.185329 55.689789 -9.334038 2.378478 20.257631 6.095360 5.420336 -24.361557 6.369142 5.523936 54.051587 1.612250 10.759240 -15.633790 -14.992179 -31.666006 11.915727 -14.748895 0.637999 -2.017158 10.776053 -2.762386 -1.022179 -3.671077 2.446776 0.995160 -0.236100 0.333600 -0.171760 0.881223 30.042004 16.746674 5.083757 -2.163286 -4.572134 -14.677942 7.072963 -0.524530 2.516138 -0.847952 -0.356190 0.220730 0.029440 -0.442130 
-0.624360 13.539520 -1.395510 -55.837657 2.512570 -24.266300 -15.383015 11.990039 3.311214 -4.265898 -6.386903 -25.018503 9.409301 12.552824 78.895882 1.377458 13.704543 -0.189068 0.284470 -0.059610 0.581660 18.339959 -7.817269 5.294454 -18.470435 17.163889 -27.434704 39.659699 -45.601860 71.407154 -3.483945 -15.592247 -0.487793 -0.020880 -0.082560 0.038020 -3.385329 -3.289553 -9.421965 8.466577 -3.923991 56.200632 -11.979091 2.164096 17.036391 7.094681 1.720952 -22.676943 -1.340372 8.967552 52.817350 5.753010 8.685220 -14.510440 -15.628447 -28.619972 11.071961 -18.729892 0.706341 -1.853211 11.318186 -3.130933 -1.132733 -3.627709 2.518320 1.032210 -0.234210 0.273870 -0.133540 0.588148 29.489095 15.544637 -4.361560 -0.766032 -5.352506 -13.676037 11.319074 -0.526438 2.359542 -0.792742 -0.409870 0.275500 0.084660 -0.417040 
-0.586760 13.519320 -1.322950 -54.275339 1.209172 -27.656369 -15.407427 11.925835 3.185953 -5.379581 -5.563457 -25.898405 13.082783 12.207318 84.658144 1.641006 14.492497 -0.369721 0.287970 -0.027640 0.611860 18.340177 -7.519097 5.670692 -24.065137 17.547851 -30.303963 56.799368 -50.527271 60.832507 -3.362336 -14.418950 -0.179149 -0.017220 -0.111820 -0.019590 -3.338832 -3.387633 -9.555783 7.629450 -2.609794 59.855654 -11.594829 2.648261 12.882180 7.035726 1.864245 -22.014807 -1.314785 8.769754 55.977584 6.447970 8.206260 -15.687720 -17.496599 -28.565002 11.474152 -19.003978 1.211535 -1.452952 9.895419 -2.429794 -0.913378 -3.552881 2.402727 1.067330 -0.285300 0.322530 -0.134320 2.713081 30.191388 13.608451 -12.204489 -0.559995 -7.837513 -16.045575 15.074066 -0.882176 2.350674 -0.783562 -0.423000 0.344260 0.056250 -0.412330 
